<svg width="40" height="24" viewBox="0 0 40 24" fill="none" xmlns="http://www.w3.org/2000/svg">
<path d="M11.6118 24C19.3412 24 23.2235 20.1176 23.2235 13.7647V0H17.9294V13.3765C17.9294 17.4 16.4471 18.8471 11.6118 18.8471C6.81177 18.8471 5.29412 17.4 5.29412 13.3765V0H0V13.7647C0 20.1176 3.91765 24 11.6118 24Z" fill="url(#paint0_linear_23_4145)"/>
<path d="M21.3582 20.1175L21.9345 19.2351L22.8008 17.1176H30.3006C35.7711 17.1176 39.3006 13.9765 39.3006 8.54118C39.3006 3.10588 35.7711 0 30.3006 0H17.9476V22.8092L18.5434 22.5131L19.1253 22.1721L19.6801 21.7897L20.218 21.3528L20.4847 21.1068L20.788 20.7988L21.3582 20.1175ZM29.7358 4.76471C32.6653 4.76471 34.0417 5.64706 34.0417 8.54118C34.0417 11.5059 32.6653 12.3529 29.7358 12.3529H23.2417V4.76471H29.7358Z" fill="url(#paint1_linear_23_4145)"/>
<defs>
<linearGradient id="paint0_linear_23_4145" x1="-0.353286" y1="-0.176643" x2="39.3526" y2="23.6469" gradientUnits="userSpaceOnUse">
<stop stop-color="#FF453A"/>
<stop offset="1" stop-color="#0A84FF"/>
</linearGradient>
<linearGradient id="paint1_linear_23_4145" x1="-0.353286" y1="-0.176643" x2="39.3526" y2="23.6469" gradientUnits="userSpaceOnUse">
<stop stop-color="#FF453A"/>
<stop offset="1" stop-color="#0A84FF"/>
</linearGradient>
</defs>
</svg>
